<?xml version="1.0" encoding="UTF-8" standalone="no"?>
<!DOCTYPE svg PUBLIC "-//W3C//DTD SVG 1.1//EN"
 "http://www.w3.org/Graphics/SVG/1.1/DTD/svg11.dtd">
<!-- Generated by graphviz version 12.1.0 (20240811.2233)
 -->
<!-- Title: dependency&#45;cruiser output Pages: 1 -->
<svg width="371pt" height="391pt"
 viewBox="0.00 0.00 371.12 391.00" xmlns="http://www.w3.org/2000/svg" xmlns:xlink="http://www.w3.org/1999/xlink">
<g id="graph0" class="graph" transform="scale(1 1) rotate(0) translate(4 387)">
<title>dependency&#45;cruiser output</title>
<polygon fill="white" stroke="none" points="-4,4 -4,-387 367.12,-387 367.12,4 -4,4"/>
<g id="clust1" class="cluster">
<title>cluster_node_modules</title>
<path fill="#ffffff" stroke="black" stroke-width="2" d="M180.88,-8C180.88,-8 235.88,-8 235.88,-8 241.88,-8 247.88,-14 247.88,-20 247.88,-20 247.88,-49 247.88,-49 247.88,-55 241.88,-61 235.88,-61 235.88,-61 180.88,-61 180.88,-61 174.88,-61 168.88,-55 168.88,-49 168.88,-49 168.88,-20 168.88,-20 168.88,-14 174.88,-8 180.88,-8"/>
<text text-anchor="middle" x="208.38" y="-48.45" font-family="Helvetica,sans-Serif" font-weight="bold" font-size="9.00">node_modules</text>
</g>
<g id="clust2" class="cluster">
<title>cluster_src</title>
<path fill="#ffffff" stroke="black" stroke-width="2" d="M20,-69C20,-69 343.12,-69 343.12,-69 349.12,-69 355.12,-75 355.12,-81 355.12,-81 355.12,-363 355.12,-363 355.12,-369 349.12,-375 343.12,-375 343.12,-375 20,-375 20,-375 14,-375 8,-369 8,-363 8,-363 8,-81 8,-81 8,-75 14,-69 20,-69"/>
<text text-anchor="middle" x="181.56" y="-362.45" font-family="Helvetica,sans-Serif" font-weight="bold" font-size="9.00">src</text>
</g>
<g id="clust3" class="cluster">
<title>cluster_src/models</title>
<path fill="#ffffff" stroke="black" stroke-width="2" d="M267.88,-77C267.88,-77 335.12,-77 335.12,-77 341.12,-77 347.12,-83 347.12,-89 347.12,-89 347.12,-118 347.12,-118 347.12,-124 341.12,-130 335.12,-130 335.12,-130 267.88,-130 267.88,-130 261.88,-130 255.88,-124 255.88,-118 255.88,-118 255.88,-89 255.88,-89 255.88,-83 261.88,-77 267.88,-77"/>
<text text-anchor="middle" x="301.5" y="-117.45" font-family="Helvetica,sans-Serif" font-weight="bold" font-size="9.00">models</text>
</g>
<g id="clust4" class="cluster">
<title>cluster_src/utils</title>
<path fill="#ffffff" stroke="black" stroke-width="2" d="M270.5,-138C270.5,-138 332.5,-138 332.5,-138 338.5,-138 344.5,-144 344.5,-150 344.5,-150 344.5,-336 344.5,-336 344.5,-342 338.5,-348 332.5,-348 332.5,-348 270.5,-348 270.5,-348 264.5,-348 258.5,-342 258.5,-336 258.5,-336 258.5,-150 258.5,-150 258.5,-144 264.5,-138 270.5,-138"/>
<text text-anchor="middle" x="301.5" y="-335.45" font-family="Helvetica,sans-Serif" font-weight="bold" font-size="9.00">utils</text>
</g>
<g id="clust5" class="cluster">
<title>cluster_src/utils/axios</title>
<path fill="#ffffff" stroke="black" stroke-width="2" d="M278.5,-146C278.5,-146 324.5,-146 324.5,-146 330.5,-146 336.5,-152 336.5,-158 336.5,-158 336.5,-187 336.5,-187 336.5,-193 330.5,-199 324.5,-199 324.5,-199 278.5,-199 278.5,-199 272.5,-199 266.5,-193 266.5,-187 266.5,-187 266.5,-158 266.5,-158 266.5,-152 272.5,-146 278.5,-146"/>
<text text-anchor="middle" x="301.5" y="-186.45" font-family="Helvetica,sans-Serif" font-weight="bold" font-size="9.00">axios</text>
</g>
<g id="clust6" class="cluster">
<title>cluster_src/utils/logger</title>
<path fill="#ffffff" stroke="black" stroke-width="2" d="M278.5,-268C278.5,-268 324.5,-268 324.5,-268 330.5,-268 336.5,-274 336.5,-280 336.5,-280 336.5,-309 336.5,-309 336.5,-315 330.5,-321 324.5,-321 324.5,-321 278.5,-321 278.5,-321 272.5,-321 266.5,-315 266.5,-309 266.5,-309 266.5,-280 266.5,-280 266.5,-274 272.5,-268 278.5,-268"/>
<text text-anchor="middle" x="301.5" y="-308.45" font-family="Helvetica,sans-Serif" font-weight="bold" font-size="9.00">logger</text>
</g>
<g id="clust7" class="cluster">
<title>cluster_src/utils/schema</title>
<path fill="#ffffff" stroke="black" stroke-width="2" d="M278.5,-207C278.5,-207 324.5,-207 324.5,-207 330.5,-207 336.5,-213 336.5,-219 336.5,-219 336.5,-248 336.5,-248 336.5,-254 330.5,-260 324.5,-260 324.5,-260 278.5,-260 278.5,-260 272.5,-260 266.5,-254 266.5,-248 266.5,-248 266.5,-219 266.5,-219 266.5,-213 272.5,-207 278.5,-207"/>
<text text-anchor="middle" x="301.5" y="-247.45" font-family="Helvetica,sans-Serif" font-weight="bold" font-size="9.00">schema</text>
</g>
<!-- node_modules/node&#45;cron -->
<g id="node1" class="node">
<title>node_modules/node&#45;cron</title>
<g id="a_node1"><a xlink:href="https://www.npmjs.com/package/node-cron" xlink:title="node&#45;cron">
<polygon fill="#c40b0a" fill-opacity="0.101961" stroke="black" points="236.88,-34.25 180.93,-34.25 178.88,-32.19 178.88,-15.75 234.82,-15.75 236.88,-17.81 236.88,-34.25"/>
<polyline fill="none" stroke="black" points="234.82,-32.19 178.88,-32.19"/>
<polyline fill="none" stroke="black" points="234.82,-32.19 234.82,-15.75"/>
<polyline fill="none" stroke="black" points="234.82,-32.19 236.88,-34.25"/>
<text text-anchor="start" x="186.88" y="-21.7" font-family="Helvetica,sans-Serif" font-size="9.00" fill="#c40b0a">node&#45;cron</text>
</a>
</g>
</g>
<!-- src/app.module.ts -->
<g id="node2" class="node">
<title>src/app.module.ts</title>
<g id="a_node2"><a xlink:href="src/app.module.ts" xlink:title="app.module.ts">
<path fill="#ddfeff" stroke="black" d="M150.58,-197.25C150.58,-197.25 89.17,-197.25 89.17,-197.25 86.08,-197.25 83,-194.17 83,-191.08 83,-191.08 83,-184.92 83,-184.92 83,-181.83 86.08,-178.75 89.17,-178.75 89.17,-178.75 150.58,-178.75 150.58,-178.75 153.67,-178.75 156.75,-181.83 156.75,-184.92 156.75,-184.92 156.75,-191.08 156.75,-191.08 156.75,-194.17 153.67,-197.25 150.58,-197.25"/>
<text text-anchor="start" x="91" y="-184.7" font-family="Helvetica,sans-Serif" font-size="9.00">app.module.ts</text>
</a>
</g>
</g>
<!-- src/app.module.ts&#45;&gt;node_modules/node&#45;cron -->
<g id="edge3" class="edge">
<title>src/app.module.ts&#45;&gt;node_modules/node&#45;cron</title>
<path fill="none" stroke="#000000" stroke-opacity="0.200000" d="M123.37,-178.25C129.14,-156.8 144.77,-104.35 168.88,-66 174.88,-56.44 183.28,-47.1 190.65,-39.76"/>
<polygon fill="#000000" fill-opacity="0.200000" stroke="#000000" stroke-opacity="0.200000" points="192.09,-41.29 194.94,-35.61 189.17,-38.27 192.09,-41.29"/>
</g>
<!-- src/app.service.ts -->
<g id="node3" class="node">
<title>src/app.service.ts</title>
<g id="a_node3"><a xlink:href="src/app.service.ts" xlink:title="app.service.ts">
<path fill="#ddfeff" stroke="black" d="M237.83,-197.25C237.83,-197.25 177.92,-197.25 177.92,-197.25 174.83,-197.25 171.75,-194.17 171.75,-191.08 171.75,-191.08 171.75,-184.92 171.75,-184.92 171.75,-181.83 174.83,-178.75 177.92,-178.75 177.92,-178.75 237.83,-178.75 237.83,-178.75 240.92,-178.75 244,-181.83 244,-184.92 244,-184.92 244,-191.08 244,-191.08 244,-194.17 240.92,-197.25 237.83,-197.25"/>
<text text-anchor="start" x="179.75" y="-184.7" font-family="Helvetica,sans-Serif" font-size="9.00">app.service.ts</text>
</a>
</g>
</g>
<!-- src/app.module.ts&#45;&gt;src/app.service.ts -->
<g id="edge1" class="edge">
<title>src/app.module.ts&#45;&gt;src/app.service.ts</title>
<path fill="none" stroke="#000000" stroke-width="2" stroke-opacity="0.200000" d="M156.85,-188C158.79,-188 160.76,-188 162.73,-188"/>
<polygon fill="#000000" fill-opacity="0.200000" stroke="#000000" stroke-width="2" stroke-opacity="0.200000" points="162.29,-190.1 168.29,-188 162.29,-185.9 162.29,-190.1"/>
</g>
<!-- src/utils/logger/index.ts -->
<g id="node4" class="node">
<title>src/utils/logger/index.ts</title>
<g id="a_node4"><a xlink:href="src/utils/logger/index.ts" xlink:title="index.ts">
<path fill="#ddfeff" stroke="black" d="M322.33,-294.25C322.33,-294.25 280.67,-294.25 280.67,-294.25 277.58,-294.25 274.5,-291.17 274.5,-288.08 274.5,-288.08 274.5,-281.92 274.5,-281.92 274.5,-278.83 277.58,-275.75 280.67,-275.75 280.67,-275.75 322.33,-275.75 322.33,-275.75 325.42,-275.75 328.5,-278.83 328.5,-281.92 328.5,-281.92 328.5,-288.08 328.5,-288.08 328.5,-291.17 325.42,-294.25 322.33,-294.25"/>
<text text-anchor="start" x="285.75" y="-281.7" font-family="Helvetica,sans-Serif" font-size="9.00">index.ts</text>
</a>
</g>
</g>
<!-- src/app.module.ts&#45;&gt;src/utils/logger/index.ts -->
<g id="edge2" class="edge">
<title>src/app.module.ts&#45;&gt;src/utils/logger/index.ts</title>
<path fill="none" stroke="#000000" stroke-width="2" stroke-opacity="0.200000" d="M137.78,-197.74C163.2,-212.31 212.89,-240.48 255.88,-263 261.22,-265.8 266.97,-268.71 272.51,-271.46"/>
<polygon fill="#000000" fill-opacity="0.200000" stroke="#000000" stroke-width="2" stroke-opacity="0.200000" points="271.38,-273.25 277.69,-274.01 273.23,-269.48 271.38,-273.25"/>
</g>
<!-- src/app.service.ts&#45;&gt;src/utils/logger/index.ts -->
<g id="edge6" class="edge">
<title>src/app.service.ts&#45;&gt;src/utils/logger/index.ts</title>
<path fill="none" stroke="#000000" stroke-width="2" stroke-opacity="0.200000" d="M212.74,-197.46C219.46,-212.93 234.66,-243.84 255.88,-263 259.23,-266.03 263.09,-268.75 267.09,-271.15"/>
<polygon fill="#000000" fill-opacity="0.200000" stroke="#000000" stroke-width="2" stroke-opacity="0.200000" points="265.95,-272.92 272.23,-273.93 267.95,-269.22 265.95,-272.92"/>
</g>
<!-- src/models/chain.model.ts -->
<g id="node5" class="node">
<title>src/models/chain.model.ts</title>
<g id="a_node5"><a xlink:href="src/models/chain.model.ts" xlink:title="chain.model.ts">
<path fill="#ddfeff" stroke="black" d="M332.96,-103.25C332.96,-103.25 270.04,-103.25 270.04,-103.25 266.96,-103.25 263.88,-100.17 263.88,-97.08 263.88,-97.08 263.88,-90.92 263.88,-90.92 263.88,-87.83 266.96,-84.75 270.04,-84.75 270.04,-84.75 332.96,-84.75 332.96,-84.75 336.04,-84.75 339.12,-87.83 339.12,-90.92 339.12,-90.92 339.12,-97.08 339.12,-97.08 339.12,-100.17 336.04,-103.25 332.96,-103.25"/>
<text text-anchor="start" x="271.88" y="-90.7" font-family="Helvetica,sans-Serif" font-size="9.00">chain.model.ts</text>
</a>
</g>
</g>
<!-- src/app.service.ts&#45;&gt;src/models/chain.model.ts -->
<g id="edge4" class="edge">
<title>src/app.service.ts&#45;&gt;src/models/chain.model.ts</title>
<path fill="none" stroke="#000000" stroke-width="2" stroke-opacity="0.200000" d="M218.34,-178.29C234.12,-162.1 265.99,-129.41 285.06,-109.84"/>
<polygon fill="#000000" fill-opacity="0.200000" stroke="#000000" stroke-width="2" stroke-opacity="0.200000" points="286.43,-111.44 289.11,-105.68 283.42,-108.51 286.43,-111.44"/>
</g>
<!-- src/utils/axios/index.ts -->
<g id="node6" class="node">
<title>src/utils/axios/index.ts</title>
<g id="a_node6"><a xlink:href="src/utils/axios/index.ts" xlink:title="index.ts">
<path fill="#ddfeff" stroke="black" d="M322.33,-172.25C322.33,-172.25 280.67,-172.25 280.67,-172.25 277.58,-172.25 274.5,-169.17 274.5,-166.08 274.5,-166.08 274.5,-159.92 274.5,-159.92 274.5,-156.83 277.58,-153.75 280.67,-153.75 280.67,-153.75 322.33,-153.75 322.33,-153.75 325.42,-153.75 328.5,-156.83 328.5,-159.92 328.5,-159.92 328.5,-166.08 328.5,-166.08 328.5,-169.17 325.42,-172.25 322.33,-172.25"/>
<text text-anchor="start" x="285.75" y="-159.7" font-family="Helvetica,sans-Serif" font-size="9.00">index.ts</text>
</a>
</g>
</g>
<!-- src/app.service.ts&#45;&gt;src/utils/axios/index.ts -->
<g id="edge5" class="edge">
<title>src/app.service.ts&#45;&gt;src/utils/axios/index.ts</title>
<path fill="none" stroke="#000000" stroke-width="2" stroke-opacity="0.200000" d="M244.3,-178.33C251.31,-176.42 258.66,-174.42 265.66,-172.51"/>
<polygon fill="#000000" fill-opacity="0.200000" stroke="#000000" stroke-width="2" stroke-opacity="0.200000" points="266.11,-174.56 271.34,-170.96 265,-170.51 266.11,-174.56"/>
</g>
<!-- src/utils/schema/index.ts -->
<g id="node7" class="node">
<title>src/utils/schema/index.ts</title>
<g id="a_node7"><a xlink:href="src/utils/schema/index.ts" xlink:title="index.ts">
<path fill="#ddfeff" stroke="black" d="M322.33,-233.25C322.33,-233.25 280.67,-233.25 280.67,-233.25 277.58,-233.25 274.5,-230.17 274.5,-227.08 274.5,-227.08 274.5,-220.92 274.5,-220.92 274.5,-217.83 277.58,-214.75 280.67,-214.75 280.67,-214.75 322.33,-214.75 322.33,-214.75 325.42,-214.75 328.5,-217.83 328.5,-220.92 328.5,-220.92 328.5,-227.08 328.5,-227.08 328.5,-230.17 325.42,-233.25 322.33,-233.25"/>
<text text-anchor="start" x="285.75" y="-220.7" font-family="Helvetica,sans-Serif" font-size="9.00">index.ts</text>
</a>
</g>
</g>
<!-- src/app.service.ts&#45;&gt;src/utils/schema/index.ts -->
<g id="edge7" class="edge">
<title>src/app.service.ts&#45;&gt;src/utils/schema/index.ts</title>
<path fill="none" stroke="#000000" stroke-width="2" stroke-opacity="0.200000" d="M233.43,-197.65C243.9,-201.76 256.29,-206.63 267.54,-211.05"/>
<polygon fill="#000000" fill-opacity="0.200000" stroke="#000000" stroke-width="2" stroke-opacity="0.200000" points="266.71,-212.98 273.06,-213.22 268.24,-209.07 266.71,-212.98"/>
</g>
<!-- src/index.ts -->
<g id="node8" class="node">
<title>src/index.ts</title>
<g id="a_node8"><a xlink:href="src/index.ts" xlink:title="index.ts">
<path fill="#ddfeff" stroke="black" d="M63.83,-197.25C63.83,-197.25 22.17,-197.25 22.17,-197.25 19.08,-197.25 16,-194.17 16,-191.08 16,-191.08 16,-184.92 16,-184.92 16,-181.83 19.08,-178.75 22.17,-178.75 22.17,-178.75 63.83,-178.75 63.83,-178.75 66.92,-178.75 70,-181.83 70,-184.92 70,-184.92 70,-191.08 70,-191.08 70,-194.17 66.92,-197.25 63.83,-197.25"/>
<text text-anchor="start" x="27.25" y="-184.7" font-family="Helvetica,sans-Serif" font-size="9.00">index.ts</text>
</a>
</g>
</g>
<!-- src/index.ts&#45;&gt;src/app.module.ts -->
<g id="edge8" class="edge">
<title>src/index.ts&#45;&gt;src/app.module.ts</title>
<path fill="none" stroke="#000000" stroke-width="2" stroke-opacity="0.200000" d="M70.19,-188C71.45,-188 72.74,-188 74.03,-188"/>
<polygon fill="#000000" fill-opacity="0.200000" stroke="#000000" stroke-width="2" stroke-opacity="0.200000" points="73.67,-190.1 79.67,-188 73.67,-185.9 73.67,-190.1"/>
</g>
</g>
</svg>
