<?xml version="1.0" encoding="UTF-8" standalone="no"?>
<!DOCTYPE svg PUBLIC "-//W3C//DTD SVG 1.1//EN"
 "http://www.w3.org/Graphics/SVG/1.1/DTD/svg11.dtd">
<!-- Generated by graphviz version 12.1.0 (20240811.2233)
 -->
<!-- Title: dependency&#45;cruiser output Pages: 1 -->
<svg width="371pt" height="515pt"
 viewBox="0.00 0.00 371.12 515.00" xmlns="http://www.w3.org/2000/svg" xmlns:xlink="http://www.w3.org/1999/xlink">
<g id="graph0" class="graph" transform="scale(1 1) rotate(0) translate(4 511)">
<title>dependency&#45;cruiser output</title>
<polygon fill="white" stroke="none" points="-4,4 -4,-511 367.12,-511 367.12,4 -4,4"/>
<g id="clust1" class="cluster">
<title>cluster_node_modules</title>
<path fill="#ffffff" stroke="black" stroke-width="2" d="M180.88,-8C180.88,-8 235.88,-8 235.88,-8 241.88,-8 247.88,-14 247.88,-20 247.88,-20 247.88,-49 247.88,-49 247.88,-55 241.88,-61 235.88,-61 235.88,-61 180.88,-61 180.88,-61 174.88,-61 168.88,-55 168.88,-49 168.88,-49 168.88,-20 168.88,-20 168.88,-14 174.88,-8 180.88,-8"/>
<text text-anchor="middle" x="208.38" y="-48.45" font-family="Helvetica,sans-Serif" font-weight="bold" font-size="9.00">node_modules</text>
</g>
<g id="clust2" class="cluster">
<title>cluster_src</title>
<path fill="#ffffff" stroke="black" stroke-width="2" d="M20,-69C20,-69 343.12,-69 343.12,-69 349.12,-69 355.12,-75 355.12,-81 355.12,-81 355.12,-487 355.12,-487 355.12,-493 349.12,-499 343.12,-499 343.12,-499 20,-499 20,-499 14,-499 8,-493 8,-487 8,-487 8,-81 8,-81 8,-75 14,-69 20,-69"/>
<text text-anchor="middle" x="181.56" y="-486.45" font-family="Helvetica,sans-Serif" font-weight="bold" font-size="9.00">src</text>
</g>
<g id="clust3" class="cluster">
<title>cluster_src/models</title>
<path fill="#ffffff" stroke="black" stroke-width="2" d="M267.88,-388C267.88,-388 335.12,-388 335.12,-388 341.12,-388 347.12,-394 347.12,-400 347.12,-400 347.12,-460 347.12,-460 347.12,-466 341.12,-472 335.12,-472 335.12,-472 267.88,-472 267.88,-472 261.88,-472 255.88,-466 255.88,-460 255.88,-460 255.88,-400 255.88,-400 255.88,-394 261.88,-388 267.88,-388"/>
<text text-anchor="middle" x="301.5" y="-459.45" font-family="Helvetica,sans-Serif" font-weight="bold" font-size="9.00">models</text>
</g>
<g id="clust4" class="cluster">
<title>cluster_src/utils</title>
<path fill="#ffffff" stroke="black" stroke-width="2" d="M270.5,-77C270.5,-77 332.5,-77 332.5,-77 338.5,-77 344.5,-83 344.5,-89 344.5,-89 344.5,-368 344.5,-368 344.5,-374 338.5,-380 332.5,-380 332.5,-380 270.5,-380 270.5,-380 264.5,-380 258.5,-374 258.5,-368 258.5,-368 258.5,-89 258.5,-89 258.5,-83 264.5,-77 270.5,-77"/>
<text text-anchor="middle" x="301.5" y="-367.45" font-family="Helvetica,sans-Serif" font-weight="bold" font-size="9.00">utils</text>
</g>
<g id="clust5" class="cluster">
<title>cluster_src/utils/axios</title>
<path fill="#ffffff" stroke="black" stroke-width="2" d="M278.5,-269C278.5,-269 324.5,-269 324.5,-269 330.5,-269 336.5,-275 336.5,-281 336.5,-281 336.5,-341 336.5,-341 336.5,-347 330.5,-353 324.5,-353 324.5,-353 278.5,-353 278.5,-353 272.5,-353 266.5,-347 266.5,-341 266.5,-341 266.5,-281 266.5,-281 266.5,-275 272.5,-269 278.5,-269"/>
<text text-anchor="middle" x="301.5" y="-340.45" font-family="Helvetica,sans-Serif" font-weight="bold" font-size="9.00">axios</text>
</g>
<g id="clust6" class="cluster">
<title>cluster_src/utils/logger</title>
<path fill="#ffffff" stroke="black" stroke-width="2" d="M278.5,-85C278.5,-85 324.5,-85 324.5,-85 330.5,-85 336.5,-91 336.5,-97 336.5,-97 336.5,-157 336.5,-157 336.5,-163 330.5,-169 324.5,-169 324.5,-169 278.5,-169 278.5,-169 272.5,-169 266.5,-163 266.5,-157 266.5,-157 266.5,-97 266.5,-97 266.5,-91 272.5,-85 278.5,-85"/>
<text text-anchor="middle" x="301.5" y="-156.45" font-family="Helvetica,sans-Serif" font-weight="bold" font-size="9.00">logger</text>
</g>
<g id="clust7" class="cluster">
<title>cluster_src/utils/schema</title>
<path fill="#ffffff" stroke="black" stroke-width="2" d="M278.5,-177C278.5,-177 324.5,-177 324.5,-177 330.5,-177 336.5,-183 336.5,-189 336.5,-189 336.5,-249 336.5,-249 336.5,-255 330.5,-261 324.5,-261 324.5,-261 278.5,-261 278.5,-261 272.5,-261 266.5,-255 266.5,-249 266.5,-249 266.5,-189 266.5,-189 266.5,-183 272.5,-177 278.5,-177"/>
<text text-anchor="middle" x="301.5" y="-248.45" font-family="Helvetica,sans-Serif" font-weight="bold" font-size="9.00">schema</text>
</g>
<!-- node_modules/node&#45;cron -->
<g id="node1" class="node">
<title>node_modules/node&#45;cron</title>
<g id="a_node1"><a xlink:href="https://www.npmjs.com/package/node-cron" xlink:title="node&#45;cron">
<polygon fill="#c40b0a" fill-opacity="0.101961" stroke="black" points="236.88,-34.25 180.93,-34.25 178.88,-32.19 178.88,-15.75 234.82,-15.75 236.88,-17.81 236.88,-34.25"/>
<polyline fill="none" stroke="black" points="234.82,-32.19 178.88,-32.19"/>
<polyline fill="none" stroke="black" points="234.82,-32.19 234.82,-15.75"/>
<polyline fill="none" stroke="black" points="234.82,-32.19 236.88,-34.25"/>
<text text-anchor="start" x="186.88" y="-21.7" font-family="Helvetica,sans-Serif" font-size="9.00" fill="#c40b0a">node&#45;cron</text>
</a>
</g>
</g>
<!-- src/app.module.js -->
<g id="node2" class="node">
<title>src/app.module.js</title>
<g id="a_node2"><a xlink:href="src/app.module.js" xlink:title="app.module.js">
<path fill="#ffffcc" stroke="black" d="M150.58,-127.25C150.58,-127.25 89.17,-127.25 89.17,-127.25 86.08,-127.25 83,-124.17 83,-121.08 83,-121.08 83,-114.92 83,-114.92 83,-111.83 86.08,-108.75 89.17,-108.75 89.17,-108.75 150.58,-108.75 150.58,-108.75 153.67,-108.75 156.75,-111.83 156.75,-114.92 156.75,-114.92 156.75,-121.08 156.75,-121.08 156.75,-124.17 153.67,-127.25 150.58,-127.25"/>
<text text-anchor="start" x="91" y="-114.7" font-family="Helvetica,sans-Serif" font-size="9.00">app.module.js</text>
</a>
</g>
</g>
<!-- src/app.module.js&#45;&gt;node_modules/node&#45;cron -->
<g id="edge3" class="edge">
<title>src/app.module.js&#45;&gt;node_modules/node&#45;cron</title>
<path fill="none" stroke="#000000" stroke-opacity="0.200000" d="M149.08,-108.27C151.91,-106.5 154.55,-104.42 156.75,-102 168.11,-89.51 160.25,-80.51 168.88,-66 174.64,-56.29 183.02,-46.94 190.44,-39.63"/>
<polygon fill="#000000" fill-opacity="0.200000" stroke="#000000" stroke-opacity="0.200000" points="191.87,-41.16 194.77,-35.5 188.98,-38.12 191.87,-41.16"/>
</g>
<!-- src/app.service.js -->
<g id="node3" class="node">
<title>src/app.service.js</title>
<g id="a_node3"><a xlink:href="src/app.service.js" xlink:title="app.service.js">
<path fill="#ffffcc" stroke="black" d="M237.83,-218.25C237.83,-218.25 177.92,-218.25 177.92,-218.25 174.83,-218.25 171.75,-215.17 171.75,-212.08 171.75,-212.08 171.75,-205.92 171.75,-205.92 171.75,-202.83 174.83,-199.75 177.92,-199.75 177.92,-199.75 237.83,-199.75 237.83,-199.75 240.92,-199.75 244,-202.83 244,-205.92 244,-205.92 244,-212.08 244,-212.08 244,-215.17 240.92,-218.25 237.83,-218.25"/>
<text text-anchor="start" x="179.75" y="-205.7" font-family="Helvetica,sans-Serif" font-size="9.00">app.service.js</text>
</a>
</g>
</g>
<!-- src/app.module.js&#45;&gt;src/app.service.js -->
<g id="edge1" class="edge">
<title>src/app.module.js&#45;&gt;src/app.service.js</title>
<path fill="none" stroke="#000000" stroke-width="2" stroke-opacity="0.200000" d="M124.75,-127.6C131.51,-143.28 146.88,-174.48 168.88,-193 169.5,-193.52 170.14,-194.03 170.8,-194.53"/>
<polygon fill="#000000" fill-opacity="0.200000" stroke="#000000" stroke-width="2" stroke-opacity="0.200000" points="169.6,-196.26 175.8,-197.67 171.84,-192.7 169.6,-196.26"/>
</g>
<!-- src/utils/logger/index.js -->
<g id="node4" class="node">
<title>src/utils/logger/index.js</title>
<g id="a_node4"><a xlink:href="src/utils/logger/index.js" xlink:title="index.js">
<path fill="#ffffcc" stroke="black" d="M322.33,-111.25C322.33,-111.25 280.67,-111.25 280.67,-111.25 277.58,-111.25 274.5,-108.17 274.5,-105.08 274.5,-105.08 274.5,-98.92 274.5,-98.92 274.5,-95.83 277.58,-92.75 280.67,-92.75 280.67,-92.75 322.33,-92.75 322.33,-92.75 325.42,-92.75 328.5,-95.83 328.5,-98.92 328.5,-98.92 328.5,-105.08 328.5,-105.08 328.5,-108.17 325.42,-111.25 322.33,-111.25"/>
<text text-anchor="start" x="285.75" y="-98.7" font-family="Helvetica,sans-Serif" font-size="9.00">index.js</text>
</a>
</g>
</g>
<!-- src/app.module.js&#45;&gt;src/utils/logger/index.js -->
<g id="edge2" class="edge">
<title>src/app.module.js&#45;&gt;src/utils/logger/index.js</title>
<path fill="none" stroke="#000000" stroke-width="2" stroke-opacity="0.200000" d="M157.22,-114.76C188.76,-111.95 234.13,-107.91 265.32,-105.13"/>
<polygon fill="#000000" fill-opacity="0.200000" stroke="#000000" stroke-width="2" stroke-opacity="0.200000" points="265.31,-107.24 271.1,-104.62 264.93,-103.06 265.31,-107.24"/>
</g>
<!-- src/app.service.js&#45;&gt;src/utils/logger/index.js -->
<g id="edge9" class="edge">
<title>src/app.service.js&#45;&gt;src/utils/logger/index.js</title>
<path fill="none" stroke="#000000" stroke-width="2" stroke-opacity="0.200000" d="M241.2,-199.3C243.74,-197.54 246.03,-195.46 247.88,-193 268,-166.19 235.15,-144.35 255.88,-118 258.67,-114.45 262.31,-111.69 266.31,-109.54"/>
<polygon fill="#000000" fill-opacity="0.200000" stroke="#000000" stroke-width="2" stroke-opacity="0.200000" points="266.85,-111.59 271.54,-107.3 265.19,-107.73 266.85,-111.59"/>
</g>
<!-- src/models/chain.model.js -->
<g id="node6" class="node">
<title>src/models/chain.model.js</title>
<g id="a_node6"><a xlink:href="src/models/chain.model.js" xlink:title="chain.model.js">
<path fill="#ffffcc" stroke="black" d="M332.96,-414.25C332.96,-414.25 270.04,-414.25 270.04,-414.25 266.96,-414.25 263.88,-411.17 263.88,-408.08 263.88,-408.08 263.88,-401.92 263.88,-401.92 263.88,-398.83 266.96,-395.75 270.04,-395.75 270.04,-395.75 332.96,-395.75 332.96,-395.75 336.04,-395.75 339.12,-398.83 339.12,-401.92 339.12,-401.92 339.12,-408.08 339.12,-408.08 339.12,-411.17 336.04,-414.25 332.96,-414.25"/>
<text text-anchor="start" x="271.88" y="-401.7" font-family="Helvetica,sans-Serif" font-size="9.00">chain.model.js</text>
</a>
</g>
</g>
<!-- src/app.service.js&#45;&gt;src/models/chain.model.js -->
<g id="edge7" class="edge">
<title>src/app.service.js&#45;&gt;src/models/chain.model.js</title>
<path fill="none" stroke="#000000" stroke-width="2" stroke-opacity="0.200000" d="M210.46,-218.52C214.78,-242.79 228.39,-308.45 255.88,-356 263.1,-368.51 273.97,-380.53 283.17,-389.54"/>
<polygon fill="#000000" fill-opacity="0.200000" stroke="#000000" stroke-width="2" stroke-opacity="0.200000" points="281.5,-390.85 287.3,-393.44 284.39,-387.79 281.5,-390.85"/>
</g>
<!-- src/utils/axios/index.js -->
<g id="node7" class="node">
<title>src/utils/axios/index.js</title>
<g id="a_node7"><a xlink:href="src/utils/axios/index.js" xlink:title="index.js">
<path fill="#ffffcc" stroke="black" d="M322.33,-295.25C322.33,-295.25 280.67,-295.25 280.67,-295.25 277.58,-295.25 274.5,-292.17 274.5,-289.08 274.5,-289.08 274.5,-282.92 274.5,-282.92 274.5,-279.83 277.58,-276.75 280.67,-276.75 280.67,-276.75 322.33,-276.75 322.33,-276.75 325.42,-276.75 328.5,-279.83 328.5,-282.92 328.5,-282.92 328.5,-289.08 328.5,-289.08 328.5,-292.17 325.42,-295.25 322.33,-295.25"/>
<text text-anchor="start" x="285.75" y="-282.7" font-family="Helvetica,sans-Serif" font-size="9.00">index.js</text>
</a>
</g>
</g>
<!-- src/app.service.js&#45;&gt;src/utils/axios/index.js -->
<g id="edge8" class="edge">
<title>src/app.service.js&#45;&gt;src/utils/axios/index.js</title>
<path fill="none" stroke="#000000" stroke-width="2" stroke-opacity="0.200000" d="M215.23,-218.6C223.47,-230.47 238.82,-250.74 255.88,-264 259.71,-266.98 264.02,-269.72 268.4,-272.17"/>
<polygon fill="#000000" fill-opacity="0.200000" stroke="#000000" stroke-width="2" stroke-opacity="0.200000" points="267.31,-273.97 273.6,-274.87 269.24,-270.24 267.31,-273.97"/>
</g>
<!-- src/utils/schema/index.js -->
<g id="node8" class="node">
<title>src/utils/schema/index.js</title>
<g id="a_node8"><a xlink:href="src/utils/schema/index.js" xlink:title="index.js">
<path fill="#ffffcc" stroke="black" d="M322.33,-203.25C322.33,-203.25 280.67,-203.25 280.67,-203.25 277.58,-203.25 274.5,-200.17 274.5,-197.08 274.5,-197.08 274.5,-190.92 274.5,-190.92 274.5,-187.83 277.58,-184.75 280.67,-184.75 280.67,-184.75 322.33,-184.75 322.33,-184.75 325.42,-184.75 328.5,-187.83 328.5,-190.92 328.5,-190.92 328.5,-197.08 328.5,-197.08 328.5,-200.17 325.42,-203.25 322.33,-203.25"/>
<text text-anchor="start" x="285.75" y="-190.7" font-family="Helvetica,sans-Serif" font-size="9.00">index.js</text>
</a>
</g>
</g>
<!-- src/app.service.js&#45;&gt;src/utils/schema/index.js -->
<g id="edge10" class="edge">
<title>src/app.service.js&#45;&gt;src/utils/schema/index.js</title>
<path fill="none" stroke="#000000" stroke-width="2" stroke-opacity="0.200000" d="M244.3,-203.2C251.31,-202.05 258.66,-200.85 265.66,-199.7"/>
<polygon fill="#000000" fill-opacity="0.200000" stroke="#000000" stroke-width="2" stroke-opacity="0.200000" points="265.69,-201.83 271.28,-198.78 265.02,-197.68 265.69,-201.83"/>
</g>
<!-- src/app.module.ts -->
<g id="node5" class="node">
<title>src/app.module.ts</title>
<g id="a_node5"><a xlink:href="src/app.module.ts" xlink:title="app.module.ts">
<path fill="#ddfeff" stroke="black" d="M150.58,-96.25C150.58,-96.25 89.17,-96.25 89.17,-96.25 86.08,-96.25 83,-93.17 83,-90.08 83,-90.08 83,-83.92 83,-83.92 83,-80.83 86.08,-77.75 89.17,-77.75 89.17,-77.75 150.58,-77.75 150.58,-77.75 153.67,-77.75 156.75,-80.83 156.75,-83.92 156.75,-83.92 156.75,-90.08 156.75,-90.08 156.75,-93.17 153.67,-96.25 150.58,-96.25"/>
<text text-anchor="start" x="91" y="-83.7" font-family="Helvetica,sans-Serif" font-size="9.00">app.module.ts</text>
</a>
</g>
</g>
<!-- src/app.module.ts&#45;&gt;node_modules/node&#45;cron -->
<g id="edge6" class="edge">
<title>src/app.module.ts&#45;&gt;node_modules/node&#45;cron</title>
<path fill="none" stroke="#000000" stroke-opacity="0.200000" d="M134.31,-77.31C148.58,-67.03 171.25,-50.68 187.46,-39"/>
<polygon fill="#000000" fill-opacity="0.200000" stroke="#000000" stroke-opacity="0.200000" points="188.67,-40.72 192.3,-35.5 186.21,-37.31 188.67,-40.72"/>
</g>
<!-- src/app.module.ts&#45;&gt;src/app.service.js -->
<g id="edge4" class="edge">
<title>src/app.module.ts&#45;&gt;src/app.service.js</title>
<path fill="none" stroke="#000000" stroke-width="2" stroke-opacity="0.200000" d="M149.9,-96.57C152.51,-98.36 154.87,-100.49 156.75,-103 180.94,-135.31 144.35,-160.94 168.88,-193 168.99,-193.16 169.12,-193.31 169.24,-193.46"/>
<polygon fill="#000000" fill-opacity="0.200000" stroke="#000000" stroke-width="2" stroke-opacity="0.200000" points="167.69,-194.9 173.55,-197.37 170.51,-191.79 167.69,-194.9"/>
</g>
<!-- src/app.module.ts&#45;&gt;src/utils/logger/index.js -->
<g id="edge5" class="edge">
<title>src/app.module.ts&#45;&gt;src/utils/logger/index.js</title>
<path fill="none" stroke="#000000" stroke-width="2" stroke-opacity="0.200000" d="M157.22,-90.04C188.76,-92.67 234.13,-96.46 265.32,-99.06"/>
<polygon fill="#000000" fill-opacity="0.200000" stroke="#000000" stroke-width="2" stroke-opacity="0.200000" points="264.94,-101.14 271.09,-99.54 265.29,-96.95 264.94,-101.14"/>
</g>
<!-- src/app.service.ts -->
<g id="node9" class="node">
<title>src/app.service.ts</title>
<g id="a_node9"><a xlink:href="src/app.service.ts" xlink:title="app.service.ts">
<path fill="#ddfeff" stroke="black" d="M237.83,-187.25C237.83,-187.25 177.92,-187.25 177.92,-187.25 174.83,-187.25 171.75,-184.17 171.75,-181.08 171.75,-181.08 171.75,-174.92 171.75,-174.92 171.75,-171.83 174.83,-168.75 177.92,-168.75 177.92,-168.75 237.83,-168.75 237.83,-168.75 240.92,-168.75 244,-171.83 244,-174.92 244,-174.92 244,-181.08 244,-181.08 244,-184.17 240.92,-187.25 237.83,-187.25"/>
<text text-anchor="start" x="179.75" y="-174.7" font-family="Helvetica,sans-Serif" font-size="9.00">app.service.ts</text>
</a>
</g>
</g>
<!-- src/app.service.ts&#45;&gt;src/utils/logger/index.js -->
<g id="edge13" class="edge">
<title>src/app.service.ts&#45;&gt;src/utils/logger/index.js</title>
<path fill="none" stroke="#000000" stroke-width="2" stroke-opacity="0.200000" d="M213.99,-168.52C221.52,-155.41 236.78,-131.79 255.88,-118 259.04,-115.72 262.56,-113.73 266.2,-112.01"/>
<polygon fill="#000000" fill-opacity="0.200000" stroke="#000000" stroke-width="2" stroke-opacity="0.200000" points="266.73,-114.06 271.47,-109.82 265.12,-110.18 266.73,-114.06"/>
</g>
<!-- src/app.service.ts&#45;&gt;src/models/chain.model.js -->
<g id="edge11" class="edge">
<title>src/app.service.ts&#45;&gt;src/models/chain.model.js</title>
<path fill="none" stroke="#000000" stroke-width="2" stroke-opacity="0.200000" d="M241.35,-187.59C243.86,-189.37 246.1,-191.49 247.88,-194 258.28,-208.72 248.96,-339.36 255.88,-356 261.28,-368.99 271.7,-380.76 281.12,-389.5"/>
<polygon fill="#000000" fill-opacity="0.200000" stroke="#000000" stroke-width="2" stroke-opacity="0.200000" points="279.55,-390.92 285.44,-393.3 282.33,-387.76 279.55,-390.92"/>
</g>
<!-- src/app.service.ts&#45;&gt;src/utils/axios/index.js -->
<g id="edge12" class="edge">
<title>src/app.service.ts&#45;&gt;src/utils/axios/index.js</title>
<path fill="none" stroke="#000000" stroke-width="2" stroke-opacity="0.200000" d="M241.18,-187.71C243.72,-189.47 246.02,-191.55 247.88,-194 266.77,-218.97 237.85,-238.39 255.88,-264 258.67,-267.97 262.39,-271.26 266.5,-273.98"/>
<polygon fill="#000000" fill-opacity="0.200000" stroke="#000000" stroke-width="2" stroke-opacity="0.200000" points="265.28,-275.7 271.54,-276.79 267.33,-272.03 265.28,-275.7"/>
</g>
<!-- src/app.service.ts&#45;&gt;src/utils/schema/index.js -->
<g id="edge14" class="edge">
<title>src/app.service.ts&#45;&gt;src/utils/schema/index.js</title>
<path fill="none" stroke="#000000" stroke-width="2" stroke-opacity="0.200000" d="M244.3,-184.19C251.31,-185.41 258.66,-186.69 265.66,-187.92"/>
<polygon fill="#000000" fill-opacity="0.200000" stroke="#000000" stroke-width="2" stroke-opacity="0.200000" points="265.01,-189.93 271.28,-188.9 265.73,-185.8 265.01,-189.93"/>
</g>
<!-- src/index.js -->
<g id="node10" class="node">
<title>src/index.js</title>
<g id="a_node10"><a xlink:href="src/index.js" xlink:title="index.js">
<path fill="#ffffcc" stroke="black" d="M63.83,-111.25C63.83,-111.25 22.17,-111.25 22.17,-111.25 19.08,-111.25 16,-108.17 16,-105.08 16,-105.08 16,-98.92 16,-98.92 16,-95.83 19.08,-92.75 22.17,-92.75 22.17,-92.75 63.83,-92.75 63.83,-92.75 66.92,-92.75 70,-95.83 70,-98.92 70,-98.92 70,-105.08 70,-105.08 70,-108.17 66.92,-111.25 63.83,-111.25"/>
<text text-anchor="start" x="27.25" y="-98.7" font-family="Helvetica,sans-Serif" font-size="9.00">index.js</text>
</a>
</g>
</g>
<!-- src/index.js&#45;&gt;src/app.module.js -->
<g id="edge15" class="edge">
<title>src/index.js&#45;&gt;src/app.module.js</title>
<path fill="none" stroke="#000000" stroke-width="2" stroke-opacity="0.200000" d="M70.19,-107.6C71.45,-107.87 72.74,-108.14 74.03,-108.42"/>
<polygon fill="#000000" fill-opacity="0.200000" stroke="#000000" stroke-width="2" stroke-opacity="0.200000" points="73.43,-110.44 79.74,-109.64 74.31,-106.33 73.43,-110.44"/>
</g>
<!-- src/index.ts -->
<g id="node11" class="node">
<title>src/index.ts</title>
<g id="a_node11"><a xlink:href="src/index.ts" xlink:title="index.ts">
<path fill="#ddfeff" stroke="black" d="M63.83,-142.25C63.83,-142.25 22.17,-142.25 22.17,-142.25 19.08,-142.25 16,-139.17 16,-136.08 16,-136.08 16,-129.92 16,-129.92 16,-126.83 19.08,-123.75 22.17,-123.75 22.17,-123.75 63.83,-123.75 63.83,-123.75 66.92,-123.75 70,-126.83 70,-129.92 70,-129.92 70,-136.08 70,-136.08 70,-139.17 66.92,-142.25 63.83,-142.25"/>
<text text-anchor="start" x="27.25" y="-129.7" font-family="Helvetica,sans-Serif" font-size="9.00">index.ts</text>
</a>
</g>
</g>
<!-- src/index.ts&#45;&gt;src/app.module.js -->
<g id="edge16" class="edge">
<title>src/index.ts&#45;&gt;src/app.module.js</title>
<path fill="none" stroke="#000000" stroke-width="2" stroke-opacity="0.200000" d="M70.19,-127.75C71.45,-127.5 72.74,-127.24 74.03,-126.98"/>
<polygon fill="#000000" fill-opacity="0.200000" stroke="#000000" stroke-width="2" stroke-opacity="0.200000" points="74.26,-129.08 79.73,-125.84 73.43,-124.96 74.26,-129.08"/>
</g>
<!-- src/models/chain.model.ts -->
<g id="node12" class="node">
<title>src/models/chain.model.ts</title>
<g id="a_node12"><a xlink:href="src/models/chain.model.ts" xlink:title="no&#45;orphans">
<path fill="#ccffcc" stroke="orange" d="M332.96,-445.25C332.96,-445.25 270.04,-445.25 270.04,-445.25 266.96,-445.25 263.88,-442.17 263.88,-439.08 263.88,-439.08 263.88,-432.92 263.88,-432.92 263.88,-429.83 266.96,-426.75 270.04,-426.75 270.04,-426.75 332.96,-426.75 332.96,-426.75 336.04,-426.75 339.12,-429.83 339.12,-432.92 339.12,-432.92 339.12,-439.08 339.12,-439.08 339.12,-442.17 336.04,-445.25 332.96,-445.25"/>
<text text-anchor="start" x="271.88" y="-432.7" font-family="Helvetica,sans-Serif" font-size="9.00" fill="orange">chain.model.ts</text>
</a>
</g>
</g>
<!-- src/utils/axios/index.ts -->
<g id="node13" class="node">
<title>src/utils/axios/index.ts</title>
<g id="a_node13"><a xlink:href="src/utils/axios/index.ts" xlink:title="no&#45;orphans">
<path fill="#ccffcc" stroke="orange" d="M322.33,-326.25C322.33,-326.25 280.67,-326.25 280.67,-326.25 277.58,-326.25 274.5,-323.17 274.5,-320.08 274.5,-320.08 274.5,-313.92 274.5,-313.92 274.5,-310.83 277.58,-307.75 280.67,-307.75 280.67,-307.75 322.33,-307.75 322.33,-307.75 325.42,-307.75 328.5,-310.83 328.5,-313.92 328.5,-313.92 328.5,-320.08 328.5,-320.08 328.5,-323.17 325.42,-326.25 322.33,-326.25"/>
<text text-anchor="start" x="285.75" y="-313.7" font-family="Helvetica,sans-Serif" font-size="9.00" fill="orange">index.ts</text>
</a>
</g>
</g>
<!-- src/utils/logger/index.ts -->
<g id="node14" class="node">
<title>src/utils/logger/index.ts</title>
<g id="a_node14"><a xlink:href="src/utils/logger/index.ts" xlink:title="no&#45;orphans">
<path fill="#ccffcc" stroke="orange" d="M322.33,-142.25C322.33,-142.25 280.67,-142.25 280.67,-142.25 277.58,-142.25 274.5,-139.17 274.5,-136.08 274.5,-136.08 274.5,-129.92 274.5,-129.92 274.5,-126.83 277.58,-123.75 280.67,-123.75 280.67,-123.75 322.33,-123.75 322.33,-123.75 325.42,-123.75 328.5,-126.83 328.5,-129.92 328.5,-129.92 328.5,-136.08 328.5,-136.08 328.5,-139.17 325.42,-142.25 322.33,-142.25"/>
<text text-anchor="start" x="285.75" y="-129.7" font-family="Helvetica,sans-Serif" font-size="9.00" fill="orange">index.ts</text>
</a>
</g>
</g>
<!-- src/utils/schema/index.ts -->
<g id="node15" class="node">
<title>src/utils/schema/index.ts</title>
<g id="a_node15"><a xlink:href="src/utils/schema/index.ts" xlink:title="no&#45;orphans">
<path fill="#ccffcc" stroke="orange" d="M322.33,-234.25C322.33,-234.25 280.67,-234.25 280.67,-234.25 277.58,-234.25 274.5,-231.17 274.5,-228.08 274.5,-228.08 274.5,-221.92 274.5,-221.92 274.5,-218.83 277.58,-215.75 280.67,-215.75 280.67,-215.75 322.33,-215.75 322.33,-215.75 325.42,-215.75 328.5,-218.83 328.5,-221.92 328.5,-221.92 328.5,-228.08 328.5,-228.08 328.5,-231.17 325.42,-234.25 322.33,-234.25"/>
<text text-anchor="start" x="285.75" y="-221.7" font-family="Helvetica,sans-Serif" font-size="9.00" fill="orange">index.ts</text>
</a>
</g>
</g>
</g>
</svg>
